HIERARCHY
ROOT Hips
{
	OFFSET 0.000000 0.000000 0.000000 
	CHANNELS 6 Xposition Yposition Zposition Zrotation Yrotation Xrotation
	JOINT LeftUpLeg
	{
		OFFSET 1.363060 -1.794630 0.839290 
		CHANNELS 3 Zrotation Yrotation Xrotation
		JOINT LeftLeg
		{
			OFFSET 2.448110 -6.726130 0.000000 
			CHANNELS 3 Zrotation Yrotation Xrotation
			JOINT LeftFoot
			{
				OFFSET 2.562200 -7.039590 0.000000 
				CHANNELS 3 Zrotation Yrotation Xrotation
				JOINT LeftToeBase
				{
					OFFSET 0.157640 -0.433110 2.322550 
					CHANNELS 3 Zrotation Yrotation Xrotation
					End Site
					{
						OFFSET 0.000000 0.000000 0.000000 
					}
				}
			}
		}
	}
	JOINT RightUpLeg
	{
		OFFSET -1.305520 -1.794630 0.839290 
		CHANNELS 3 Zrotation Yrotation Xrotation
		JOINT RightLeg
		{
			OFFSET -2.542530 -6.985550 0.000000 
			CHANNELS 3 Zrotation Yrotation Xrotation
			JOINT RightFoot
			{
				OFFSET -2.568260 -7.056230 0.000000 
				CHANNELS 3 Zrotation Yrotation Xrotation
				JOINT RightToeBase
				{
					OFFSET -0.164730 -0.452590 2.363150 
					CHANNELS 3 Zrotation Yrotation Xrotation
					End Site
					{
						OFFSET 0.000000 0.000000 0.000000 
					}
				}
			}
		}
	}
	JOINT Spine
	{
		OFFSET 0.028270 2.035590 -0.193380 
		CHANNELS 3 Zrotation Yrotation Xrotation
		JOINT Spine1
		{
			OFFSET 0.056720 2.048850 -0.042750 
			CHANNELS 3 Zrotation Yrotation Xrotation
			JOINT Neck1
			{
				OFFSET -0.054170 1.746240 0.172020 
				CHANNELS 3 Zrotation Yrotation Xrotation
				JOINT Head
				{
					OFFSET 0.104070 1.761360 -0.123970 
					CHANNELS 3 Zrotation Yrotation Xrotation
					End Site
					{
						OFFSET 0.000000 0.000000 0.000000 
					}
				}
			}
			JOINT LeftArm
			{
				OFFSET 3.362410 1.200890 -0.311210 
				CHANNELS 3 Zrotation Yrotation Xrotation
				JOINT LeftForeArm
				{
					OFFSET 4.983000 -0.000000 -0.000000 
					CHANNELS 3 Zrotation Yrotation Xrotation
					JOINT LeftHand
					{
						OFFSET 3.483560 -0.000000 -0.000000 
						CHANNELS 3 Zrotation Yrotation Xrotation
						JOINT LeftHandIndex1
						{
							OFFSET 0.715260 -0.000000 -0.000000 
							CHANNELS 3 Zrotation Yrotation Xrotation
							End Site
							{
								OFFSET 0.000000 0.000000 0.000000 
							}
						}
					}
				}
			}
			JOINT RightArm
			{
				OFFSET -3.136600 1.374050 -0.404650 
				CHANNELS 3 Zrotation Yrotation Xrotation
				JOINT RightForeArm
				{
					OFFSET -5.241900 -0.000000 -0.000000 
					CHANNELS 3 Zrotation Yrotation Xrotation
					JOINT RightHand
					{
						OFFSET -3.444170 -0.000000 -0.000000 
						CHANNELS 3 Zrotation Yrotation Xrotation
						JOINT RightHandIndex1
						{
							OFFSET -0.622530 -0.000000 -0.000000 
							CHANNELS 3 Zrotation Yrotation Xrotation
							End Site
							{
								OFFSET 0.000000 0.000000 0.000000 
							}
						}
					}
				}
			}
		}
	}
}
MOTION
Frames: 10
Frame Time: 0.041667
-2.807965 17.592355 -13.114130 0.953259 -8.018647 1.356421 -25.124378 -3.858558 -13.702723 2.592486 10.190914 32.282334 0.483109 -12.784211 -7.305586 1.345100 -7.342800 -20.734900 15.577343 -1.298550 -18.194970 -8.039854 -15.650240 53.444556 0.124980 -7.049090 -14.332961 -1.999500 -8.865000 25.373800 1.847522 -0.021995 -5.306251 -1.899586 0.177198 -11.904130 5.850281 10.457149 4.562889 -5.856400 5.129100 1.574000 -42.169406 19.201422 -12.767299 18.116578 -25.282618 -5.469125 -0.904480 -1.718609 -6.370600 -7.125000 0.000000 0.000000 42.158572 -11.625077 -31.942923 -20.421376 26.912793 -7.908827 -1.793029 0.663311 15.289428 7.125000 0.000000 0.000000 
-2.824350 17.710624 -13.068947 1.556555 -8.274876 1.479709 -25.619692 -3.568770 -13.104104 2.336191 9.756421 30.954469 0.335308 -12.401713 -5.653617 1.639500 -8.071000 -22.929900 14.869471 -1.005157 -17.775597 -7.287069 -15.066245 50.677996 0.148152 -7.040963 -13.994079 -2.103900 -9.079200 26.043400 1.902318 0.047707 -5.315988 -1.818814 0.205930 -11.773459 5.635994 10.674556 4.764114 -5.960600 5.269600 1.725700 -42.059148 19.288020 -13.133188 18.032013 -25.212426 -5.446225 -0.924998 -1.728329 -6.603127 -7.125000 0.000000 0.000000 41.149037 -11.617190 -31.296561 -20.590506 27.079417 -7.968071 -1.741871 0.639817 14.103686 7.125000 0.000000 0.000000 
-2.847586 17.814990 -13.024956 2.020486 -8.519781 1.670438 -25.962919 -3.160175 -12.692116 2.104172 9.344659 29.694936 0.197466 -12.075451 -3.916842 1.967100 -8.797100 -25.162700 14.345801 -0.599698 -17.506830 -6.643283 -14.522256 48.230063 0.177074 -6.983470 -13.464398 -2.152600 -9.177000 26.350400 1.977141 0.077355 -5.327638 -1.736055 0.208771 -11.539139 5.306409 10.829812 5.194001 -6.189600 5.420500 2.080400 -41.862233 19.420584 -13.582584 17.938780 -25.139451 -5.419714 -0.939567 -1.733175 -6.685580 -7.125000 0.000000 0.000000 40.255686 -11.451534 -31.171028 -20.800340 27.266685 -8.049821 -1.695407 0.620458 13.644595 7.125000 0.000000 0.000000 
-2.877873 17.912803 -12.985335 2.667065 -8.656422 1.847653 -26.501647 -2.642443 -12.376466 1.875688 8.909888 28.384862 0.070083 -11.847211 -2.120193 2.185700 -9.242700 -26.557500 13.658239 -0.038847 -17.204647 -6.022172 -13.958512 45.788990 0.171133 -6.731903 -13.102016 -2.123600 -9.119000 26.168200 2.010080 0.178915 -5.333796 -1.540870 0.292829 -11.496511 5.336307 11.405415 4.847767 -6.154200 5.642400 1.804000 -41.420049 19.361853 -14.074618 17.732296 -24.947065 -5.342723 -0.969918 -1.739575 -6.564942 -7.125000 0.000000 0.000000 39.722443 -11.045999 -32.894037 -21.080852 27.506446 -8.190345 -1.658193 0.607756 14.730323 7.125000 0.000000 0.000000 
-2.906274 18.011509 -12.947401 3.624027 -8.639007 1.898349 -27.394081 -2.265175 -11.962328 1.662611 8.492156 27.137155 -0.040506 -11.437536 -0.330657 2.302200 -9.469000 -27.273800 12.568833 0.406041 -16.806604 -5.469316 -13.400559 43.516393 0.193787 -6.671859 -12.650020 -2.093300 -9.057800 25.976300 2.043192 0.126074 -5.359590 -1.394920 0.259120 -11.246519 4.949522 11.222645 5.477908 -6.438500 5.661500 2.379400 -40.740784 19.184831 -14.243373 17.503477 -24.709727 -5.279857 -1.019336 -1.779092 -6.761955 -7.125000 0.000000 0.000000 38.881316 -11.458764 -31.355390 -21.353677 27.735213 -8.242837 -1.567439 0.562696 12.774165 7.125000 0.000000 0.000000 
-2.936561 18.110613 -12.903907 4.302958 -8.526012 1.938411 -27.940158 -2.094368 -11.429711 1.461596 8.085285 25.933730 -0.120370 -10.798195 1.405423 2.420500 -9.691900 -27.984800 11.820267 0.829283 -16.270484 -4.978042 -12.851837 41.406907 0.276922 -6.880495 -11.685983 -2.031800 -8.932000 25.583000 2.105205 0.065931 -5.359469 -1.158723 0.245643 -11.034098 4.786470 11.488682 5.726952 -6.501700 5.836300 2.511200 -40.156500 19.215272 -14.387427 17.394367 -24.647401 -5.272570 -1.043763 -1.825332 -6.941321 -7.125000 0.000000 0.000000 37.994750 -11.543680 -30.720805 -21.477826 27.818167 -8.228317 -1.477705 0.504203 11.802482 7.125000 0.000000 0.000000 
-2.974196 18.204950 -12.864583 4.724140 -8.353392 2.093818 -28.140977 -1.997728 -11.078442 1.294947 7.730564 24.885222 -0.169900 -10.406717 2.811420 2.676400 -10.151800 -29.469600 11.432491 1.449183 -15.772658 -4.530381 -12.320543 39.417409 0.370804 -7.136470 -10.499326 -2.066200 -9.002600 25.803500 2.157199 0.081114 -5.341532 -0.923127 0.299426 -10.965684 5.018589 12.355535 5.107880 -6.307100 6.157000 1.905500 -39.453141 19.270187 -14.520345 17.301001 -24.627122 -5.258251 -1.056442 -1.844577 -7.004045 -7.125000 0.000000 0.000000 37.394581 -11.589151 -30.671308 -21.629706 27.976847 -8.260715 -1.381414 0.441879 11.405832 7.125000 0.000000 0.000000 
-3.016201 18.289456 -12.833700 5.287742 -8.139540 2.218102 -28.486084 -1.926894 -10.852738 1.166150 7.445143 24.040990 -0.206619 -10.122957 4.069673 3.012300 -10.714900 -31.324200 10.847629 2.232494 -15.254087 -4.145889 -11.818504 37.610907 0.391657 -6.906990 -9.510026 -2.777800 -10.326300 30.040000 2.177154 0.039934 -5.367111 -0.878190 0.280402 -10.937602 4.803784 12.570209 5.114951 -6.492400 6.269400 1.920500 -38.303458 19.279966 -14.230137 17.079606 -24.415750 -5.181727 -1.090812 -1.845027 -7.303389 -7.125000 0.000000 0.000000 37.089343 -11.664325 -30.871416 -21.770370 28.068449 -8.284135 -1.305644 0.376946 11.428033 7.125000 0.000000 0.000000 
-3.059695 18.376444 -12.800136 5.532727 -7.852317 2.355762 -28.437637 -2.101159 -10.583932 1.051588 7.205722 23.324301 -0.217579 -9.540006 5.133786 3.358200 -11.253500 -33.139800 10.670736 3.006757 -14.737051 -3.831576 -11.372028 36.068381 0.426389 -6.787991 -8.379241 -3.268200 -11.117100 32.675700 2.231759 0.033008 -5.384659 -0.726855 0.289105 -10.908841 4.808677 12.845172 4.948335 -6.468900 6.373500 1.826000 -37.170907 19.252997 -13.799230 16.883117 -24.229188 -5.115548 -1.118438 -1.842691 -7.680048 -7.125000 0.000000 0.000000 36.646078 -11.529093 -31.350114 -21.727378 27.966801 -8.214614 -1.236243 0.298977 11.835461 7.125000 0.000000 0.000000 
-3.102693 18.443175 -12.764785 5.566511 -7.473635 2.620894 -28.132647 -2.638091 -10.274200 0.952774 7.027815 22.771424 -0.207235 -8.890234 5.572796 3.718800 -11.776500 -34.946000 10.814116 3.492045 -14.564783 -3.587933 -11.015920 34.835962 0.525621 -7.210111 -6.753191 -2.586300 -9.993200 28.954800 2.317843 0.028427 -5.365422 -0.571719 0.285054 -10.514186 4.647364 13.002235 5.095164 -6.527900 6.464600 2.028800 -36.130626 18.901948 -13.415220 16.763546 -24.144156 -5.103759 -1.156516 -1.873305 -8.199668 -7.125000 0.000000 0.000000 36.253038 -11.447577 -31.816699 -21.790751 27.995308 -8.215109 -1.156325 0.222914 11.817377 7.125000 0.000000 0.000000 
